<svg t="1614333569988" class="icon" viewBox="0 0 1024 1024" version="1.1" xmlns="http://www.w3.org/2000/svg" p-id="3279" width="200" height="200"><path d="M540.444444 540.444444a227.555556 227.555556 0 1 1 0-455.111111 227.555556 227.555556 0 0 1 0 455.111111z m0-56.888888a170.666667 170.666667 0 1 0 0-341.333334 170.666667 170.666667 0 0 0 0 341.333334zM262.599111 958.577778a199.111111 199.111111 0 1 1 0-398.222222 199.111111 199.111111 0 0 1 0 398.222222z m0-56.888889a142.222222 142.222222 0 1 0 0-284.444445 142.222222 142.222222 0 0 0 0 284.444445zM805.774222 882.119111a142.222222 142.222222 0 1 1 0-284.444444 142.222222 142.222222 0 0 1 0 284.444444z m0-56.888889a85.333333 85.333333 0 1 0 0-170.666666 85.333333 85.333333 0 0 0 0 170.666666z" p-id="3280" fill="#1296db"></path><path d="M773.688889 630.613333l-48.810667 29.184-99.157333-165.432889 48.810667-29.240888 99.157333 165.489777zM417.393778 466.488889l47.786666 30.833778-85.902222 133.347555-47.786666-30.776889 85.902222-133.404444z" p-id="3281" fill="#1296db"></path></svg>